<svg xmlns="http://www.w3.org/2000/svg" viewBox="0 0 200 240" width="200" height="240">
  <defs>
    <radialGradient id="kinh" cx="50%" cy="38%" r="70%">
      <stop offset="0%" stop-color="#f6ecd4" stop-opacity="0.9"/>
      <stop offset="70%" stop-color="#cdb48c" stop-opacity="0.55"/>
      <stop offset="100%" stop-color="#4f3f2e" stop-opacity="0.85"/>
    </radialGradient>
    <filter id="hat" x="0" y="0" width="100%" height="100%">
      <feTurbulence type="fractalNoise" baseFrequency="0.85" numOctaves="2" seed="91"/>
      <feColorMatrix values="0 0 0 0 0.11  0 0 0 0 0.09  0 0 0 0 0.07  0 0 0 0.55 -0.12"/>
      <feComposite in2="SourceGraphic" operator="in"/>
    </filter>
    <filter id="net" x="-5%" y="-5%" width="110%" height="110%">
      <feTurbulence type="fractalNoise" baseFrequency="0.04" numOctaves="2" seed="3" result="n"/>
      <feDisplacementMap in="SourceGraphic" in2="n" scale="1.6"/>
    </filter>
    <radialGradient id="toi" cx="50%" cy="45%" r="75%">
      <stop offset="60%" stop-color="#1c1712" stop-opacity="0"/>
      <stop offset="100%" stop-color="#1c1712" stop-opacity="0.45"/>
    </radialGradient>
  </defs>
  
  <rect width="200" height="240" fill="#efe3c8"/>
  <rect width="200" height="240" fill="url(#kinh)"/>
  <g opacity="0.35" stroke="#7a6247" stroke-width="1">
    <path d="M0 176 Q60 168 110 172 T200 166" fill="none"/>
    <path d="M14 176 v-22 M24 176 v-30 M150 170 v-26 M166 169 v-18" />
    <circle cx="24" cy="140" r="12" fill="#cdb48c" stroke="none"/>
    <circle cx="150" cy="138" r="14" fill="#cdb48c" stroke="none"/>
  </g>
  <g stroke="#4f3f2e" stroke-width="1" opacity="0.18">
    <line x1="-40" y1="0" x2="40" y2="240"/><line x1="-22" y1="0" x2="58" y2="240"/><line x1="-4" y1="0" x2="76" y2="240"/><line x1="14" y1="0" x2="94" y2="240"/><line x1="32" y1="0" x2="112" y2="240"/><line x1="50" y1="0" x2="130" y2="240"/><line x1="68" y1="0" x2="148" y2="240"/><line x1="86" y1="0" x2="166" y2="240"/><line x1="104" y1="0" x2="184" y2="240"/><line x1="122" y1="0" x2="202" y2="240"/><line x1="140" y1="0" x2="220" y2="240"/><line x1="158" y1="0" x2="238" y2="240"/><line x1="176" y1="0" x2="256" y2="240"/><line x1="194" y1="0" x2="274" y2="240"/><line x1="212" y1="0" x2="292" y2="240"/><line x1="230" y1="0" x2="310" y2="240"/>
  </g>
  <g filter="url(#net)"><g transform="translate(0 0) translate(100 222) scale(1.14) translate(-100 -222)"><path d="M91 124 L90 156 L110 156 L109 124 Z" fill="#bfa27a" stroke="#1c1712" stroke-width="2.2" stroke-linejoin="round" stroke-linecap="round"/><path d="M26 240 C30 182 56 156 82 152
          L118 152 C144 156 170 182 174 240 Z" fill="#a88a62" stroke="#1c1712" stroke-width="2.2" stroke-linejoin="round" stroke-linecap="round"/><path d="M110 154 C144 158 168 184 174 240 L130 240 Z" fill="#1c1712" opacity="0.18"/>
        <path d="M84 148 L100 162 L116 148 L114 158 L100 170 L86 158 Z" fill="#cdb48c" stroke="#1c1712" stroke-width="2.2" stroke-linejoin="round" stroke-linecap="round"/>
        <rect x="66" y="180" width="24" height="20" fill="none" stroke="#1c1712" stroke-width="1.4" stroke-linejoin="round" stroke-linecap="round"/><path d="M66 186 H90" stroke="#1c1712" stroke-width="1.4" stroke-linejoin="round" stroke-linecap="round"/><rect x="110" y="180" width="24" height="20" fill="none" stroke="#1c1712" stroke-width="1.4" stroke-linejoin="round" stroke-linecap="round"/><path d="M110 186 H134" stroke="#1c1712" stroke-width="1.4" stroke-linejoin="round" stroke-linecap="round"/>
        <line x1="100" y1="170" x2="100" y2="240" stroke="#1c1712" stroke-width="1.4" stroke-linejoin="round" stroke-linecap="round"/><circle cx="100" cy="176" r="2.2" fill="#1c1712"/><circle cx="100" cy="190" r="2.2" fill="#1c1712"/><circle cx="100" cy="204" r="2.2" fill="#1c1712"/><circle cx="100" cy="218" r="2.2" fill="#1c1712"/>
        <path d="M32 240 C34 196 50 174 60 182 L68 240 Z" fill="#cdb48c" stroke="#1c1712" stroke-width="2.2" stroke-linejoin="round" stroke-linecap="round"/>
        <path d="M48 200 q10 6 20 0" fill="none" stroke="#1c1712" stroke-width="1.4" stroke-linejoin="round" stroke-linecap="round"/>
        <rect x="54" y="192" width="3" height="10" fill="#7a6247"/>
        <g transform="translate(122 160)"><circle r="5" fill="#a83a2c" stroke="#1c1712" stroke-width="1.4" stroke-linejoin="round" stroke-linecap="round"/><path d="M0 -3 L1 -1 L3 -1 L1.5 0.5 L2 3 L0 1.5 L-2 3 L-1.5 0.5 L-3 -1 L-1 -1 Z" fill="#efe3c8"/></g>
  <g transform="rotate(3 100 136)">
    
    <ellipse cx="71" cy="100" rx="6" ry="9" fill="#dcc6a2" stroke="#1c1712" stroke-width="2.2" stroke-linejoin="round" stroke-linecap="round"/>
    <ellipse cx="129" cy="100" rx="6" ry="9" fill="#dcc6a2" stroke="#1c1712" stroke-width="2.2" stroke-linejoin="round" stroke-linecap="round"/>
    <path d="M71 90 C71 56 129 56 129 90 C129 117.6 114.5 132 100 132 C85.5 132 71 117.6 71 90 Z" fill="#dcc6a2" stroke="#1c1712" stroke-width="2.2" stroke-linejoin="round" stroke-linecap="round"/>
    <path d="M110.15 66 C131 70 131 114 104 131 C120.3 110.4 123.2 86 110.15 66 Z" fill="#bfa27a" opacity="0.55"/>
    <path d="M81.4 89 L95.4 88" fill="none" stroke="#1c1712" stroke-width="2.6" stroke-linecap="round"/>
    <path d="M104.6 89 L118.6 88" fill="none" stroke="#1c1712" stroke-width="2.6" stroke-linecap="round"/>
    <ellipse cx="88.4" cy="98" rx="5" ry="2.13" fill="#efe3c8" stroke="#1c1712" stroke-width="1.4" stroke-linejoin="round" stroke-linecap="round"/>
    <circle cx="88.4" cy="98.8" r="1.9300000000000002" fill="#1c1712"/>
    <path d="M82.4 96.47 Q88.4 93.47 94.4 96.47" fill="none" stroke="#1c1712" stroke-width="2.4"/>
    <path d="M84.4 104 q4 3 8 0" fill="none" stroke="#7a6247" stroke-width="1.2"/>
    <ellipse cx="111.6" cy="98" rx="5" ry="2.13" fill="#efe3c8" stroke="#1c1712" stroke-width="1.4" stroke-linejoin="round" stroke-linecap="round"/>
    <circle cx="111.6" cy="98.8" r="1.9300000000000002" fill="#1c1712"/>
    <path d="M105.6 96.47 Q111.6 93.47 117.6 96.47" fill="none" stroke="#1c1712" stroke-width="2.4"/>
    <path d="M107.6 104 q4 3 8 0" fill="none" stroke="#7a6247" stroke-width="1.2"/>
    <path d="M101 102 q-3 8 -5 11 q4 3 8 0" fill="none" stroke="#7a6247" stroke-width="1.6" stroke-linecap="round"/>
    <ellipse cx="100" cy="121" rx="4" ry="2.4" fill="#2e251c" stroke="#1c1712" stroke-width="1.4" stroke-linejoin="round" stroke-linecap="round"/>
    <circle cx="120.5" cy="116.7" r="0.8" fill="#1c1712"/><circle cx="117.0" cy="118.8" r="0.8" fill="#1c1712"/><circle cx="113.6" cy="120.7" r="0.8" fill="#1c1712"/><circle cx="117.2" cy="122.6" r="0.8" fill="#1c1712"/><circle cx="113.8" cy="124.3" r="0.8" fill="#1c1712"/><circle cx="110.6" cy="125.8" r="0.8" fill="#1c1712"/><circle cx="112.8" cy="127.2" r="0.8" fill="#1c1712"/><circle cx="109.7" cy="128.5" r="0.8" fill="#1c1712"/><circle cx="107.0" cy="129.5" r="0.8" fill="#1c1712"/><circle cx="107.6" cy="130.4" r="0.8" fill="#1c1712"/><circle cx="105.0" cy="131.1" r="0.8" fill="#1c1712"/><circle cx="102.9" cy="131.6" r="0.8" fill="#1c1712"/><circle cx="101.9" cy="131.9" r="0.8" fill="#1c1712"/><circle cx="100.0" cy="132.0" r="0.8" fill="#1c1712"/><circle cx="98.6" cy="131.9" r="0.8" fill="#1c1712"/><circle cx="96.1" cy="131.6" r="0.8" fill="#1c1712"/><circle cx="95.0" cy="131.1" r="0.8" fill="#1c1712"/><circle cx="94.4" cy="130.4" r="0.8" fill="#1c1712"/><circle cx="90.6" cy="129.5" r="0.8" fill="#1c1712"/><circle cx="90.3" cy="128.5" r="0.8" fill="#1c1712"/><circle cx="90.5" cy="127.2" r="0.8" fill="#1c1712"/><circle cx="85.6" cy="125.8" r="0.8" fill="#1c1712"/><circle cx="86.2" cy="124.3" r="0.8" fill="#1c1712"/><circle cx="87.3" cy="122.6" r="0.8" fill="#1c1712"/><circle cx="81.6" cy="120.7" r="0.8" fill="#1c1712"/><circle cx="83.0" cy="118.8" r="0.8" fill="#1c1712"/>
    <path d="M77 102 q4 10 2 18 M123 102 q-4 10 -2 18" fill="none" stroke="#bfa27a" stroke-width="3" opacity="0.8"/>
    <path d="M69 96 C61 52 139 52 131 96 L125 76 L114 68 L104 76 L92 68 L82 76 L75 72 Z" fill="#4f3f2e" stroke="#1c1712" stroke-width="2.2" stroke-linejoin="round" stroke-linecap="round"/>
        <path d="M84 60 l-4 -8 M100 56 l2 -8 M116 60 l6 -6" stroke="#1c1712" stroke-width="1.4" stroke-linejoin="round" stroke-linecap="round"/>
  </g></g></g>
  <rect width="200" height="240" fill="url(#toi)"/>
  <rect width="200" height="240" fill="#000" filter="url(#hat)" opacity="0.5"/>
  
  <rect x="3" y="3" width="194" height="234" fill="none" stroke="#2e251c" stroke-width="6"/>
  <line x1="3" y1="58" x2="197" y2="58" stroke="#2e251c" stroke-width="3" opacity="0.8"/>
  <rect x="0" y="222" width="200" height="18" fill="#4f3f2e"/>
  <rect x="0" y="222" width="200" height="3" fill="#7a6247"/>
  <path d="M0 230 H200 M0 235 H200" stroke="#2e251c" stroke-width="0.8" opacity="0.6"/>
</svg>
