<svg xmlns="http://www.w3.org/2000/svg" viewBox="0 0 200 240" width="200" height="240">
  <defs>
    <radialGradient id="kinh" cx="50%" cy="38%" r="70%">
      <stop offset="0%" stop-color="#f6ecd4" stop-opacity="0.9"/>
      <stop offset="70%" stop-color="#cdb48c" stop-opacity="0.55"/>
      <stop offset="100%" stop-color="#4f3f2e" stop-opacity="0.85"/>
    </radialGradient>
    <filter id="hat" x="0" y="0" width="100%" height="100%">
      <feTurbulence type="fractalNoise" baseFrequency="0.85" numOctaves="2" seed="60"/>
      <feColorMatrix values="0 0 0 0 0.11  0 0 0 0 0.09  0 0 0 0 0.07  0 0 0 0.55 -0.12"/>
      <feComposite in2="SourceGraphic" operator="in"/>
    </filter>
    <filter id="net" x="-5%" y="-5%" width="110%" height="110%">
      <feTurbulence type="fractalNoise" baseFrequency="0.04" numOctaves="2" seed="3" result="n"/>
      <feDisplacementMap in="SourceGraphic" in2="n" scale="1.6"/>
    </filter>
    <radialGradient id="toi" cx="50%" cy="45%" r="75%">
      <stop offset="60%" stop-color="#1c1712" stop-opacity="0"/>
      <stop offset="100%" stop-color="#1c1712" stop-opacity="0.45"/>
    </radialGradient>
  </defs>
  
  <rect width="200" height="240" fill="#efe3c8"/>
  <rect width="200" height="240" fill="url(#kinh)"/>
  <g opacity="0.35" stroke="#7a6247" stroke-width="1">
    <path d="M0 176 Q60 168 110 172 T200 166" fill="none"/>
    <path d="M14 176 v-22 M24 176 v-30 M150 170 v-26 M166 169 v-18" />
    <circle cx="24" cy="140" r="12" fill="#cdb48c" stroke="none"/>
    <circle cx="150" cy="138" r="14" fill="#cdb48c" stroke="none"/>
  </g>
  <g stroke="#4f3f2e" stroke-width="1" opacity="0.18">
    <line x1="-40" y1="0" x2="40" y2="240"/><line x1="-22" y1="0" x2="58" y2="240"/><line x1="-4" y1="0" x2="76" y2="240"/><line x1="14" y1="0" x2="94" y2="240"/><line x1="32" y1="0" x2="112" y2="240"/><line x1="50" y1="0" x2="130" y2="240"/><line x1="68" y1="0" x2="148" y2="240"/><line x1="86" y1="0" x2="166" y2="240"/><line x1="104" y1="0" x2="184" y2="240"/><line x1="122" y1="0" x2="202" y2="240"/><line x1="140" y1="0" x2="220" y2="240"/><line x1="158" y1="0" x2="238" y2="240"/><line x1="176" y1="0" x2="256" y2="240"/><line x1="194" y1="0" x2="274" y2="240"/><line x1="212" y1="0" x2="292" y2="240"/><line x1="230" y1="0" x2="310" y2="240"/>
  </g>
  <g filter="url(#net)"><g transform="translate(0 0) translate(100 222) scale(0.9119999999999999) translate(-100 -222)"><path d="M91 122 L90 156 L110 156 L109 122 Z" fill="#bfa27a" stroke="#1c1712" stroke-width="2.2" stroke-linejoin="round" stroke-linecap="round"/><path d="M34 240 C38 182 64 156 82 152
          L118 152 C136 156 162 182 166 240 Z" fill="#cdb48c" stroke="#1c1712" stroke-width="2.2" stroke-linejoin="round" stroke-linecap="round"/><path d="M110 154 C136 158 160 184 166 240 L130 240 Z" fill="#1c1712" opacity="0.18"/>
        <path d="M86 152 Q100 162 114 152" fill="none" stroke="#1c1712" stroke-width="2.2" stroke-linejoin="round" stroke-linecap="round"/>
        <path d="M70 186 h60 M66 196 h68" stroke="#7a6247" stroke-width="3" opacity="0.6"/>
  <g transform="rotate(0 100 136)">
    
    <ellipse cx="66" cy="100" rx="6" ry="9" fill="#dcc6a2" stroke="#1c1712" stroke-width="2.2" stroke-linejoin="round" stroke-linecap="round"/>
    <ellipse cx="134" cy="100" rx="6" ry="9" fill="#dcc6a2" stroke="#1c1712" stroke-width="2.2" stroke-linejoin="round" stroke-linecap="round"/>
    <path d="M66 90 C66 58 134 58 134 90 C134 116.4 117 130 100 130 C83 130 66 116.4 66 90 Z" fill="#dcc6a2" stroke="#1c1712" stroke-width="2.2" stroke-linejoin="round" stroke-linecap="round"/>
    <path d="M111.9 68 C136 72 136 113 104 129 C123.8 109.6 127.2 86 111.9 68 Z" fill="#bfa27a" opacity="0.55"/>
    <path d="M79.4 87 Q86.4 84 93.4 87" fill="none" stroke="#1c1712" stroke-width="1.4" stroke-linecap="round"/>
    <path d="M106.6 87 Q113.6 84 120.6 87" fill="none" stroke="#1c1712" stroke-width="1.4" stroke-linecap="round"/>
    <ellipse cx="86.4" cy="98" rx="5.4" ry="5.3999999999999995" fill="#efe3c8" stroke="#1c1712" stroke-width="1.4" stroke-linejoin="round" stroke-linecap="round"/>
    <circle cx="86.4" cy="98" r="3" fill="#1c1712"/>
    <circle cx="87.4" cy="97" r="0.9" fill="#efe3c8"/>
    <path d="M80 93.2 Q86.4 90.2 92.80000000000001 93.2" fill="none" stroke="#1c1712" stroke-width="1.6"/>
    <ellipse cx="113.6" cy="98" rx="5.4" ry="5.3999999999999995" fill="#efe3c8" stroke="#1c1712" stroke-width="1.4" stroke-linejoin="round" stroke-linecap="round"/>
    <circle cx="113.6" cy="98" r="3" fill="#1c1712"/>
    <circle cx="114.6" cy="97" r="0.9" fill="#efe3c8"/>
    <path d="M107.19999999999999 93.2 Q113.6 90.2 120 93.2" fill="none" stroke="#1c1712" stroke-width="1.6"/>
    <path d="M101 102 q-3 8 -5 11 q4 3 8 0" fill="none" stroke="#7a6247" stroke-width="1.6" stroke-linecap="round"/>
    <path d="M92 120 Q100 123 108 120" fill="none" stroke="#1c1712" stroke-width="2.2" stroke-linejoin="round" stroke-linecap="round"/>
    <path d="M90 64 q4 -10 10 -4 q4 -8 10 0 q-2 6 -6 4" fill="none" stroke="#1c1712" stroke-width="2.2" stroke-linejoin="round" stroke-linecap="round"/>
        <path d="M72 76 q8 -12 20 -12 M128 76 q-8 -12 -20 -12" fill="none" stroke="#7a6247" stroke-width="1.4"/>
  </g></g></g>
  <rect width="200" height="240" fill="url(#toi)"/>
  <rect width="200" height="240" fill="#000" filter="url(#hat)" opacity="0.5"/>
  
  <rect x="3" y="3" width="194" height="234" fill="none" stroke="#2e251c" stroke-width="6"/>
  <line x1="3" y1="58" x2="197" y2="58" stroke="#2e251c" stroke-width="3" opacity="0.8"/>
  <rect x="0" y="222" width="200" height="18" fill="#4f3f2e"/>
  <rect x="0" y="222" width="200" height="3" fill="#7a6247"/>
  <path d="M0 230 H200 M0 235 H200" stroke="#2e251c" stroke-width="0.8" opacity="0.6"/>
</svg>
